# xmcd
#
# Track frame offsets:
#	150
#	14117
#	31280
#	54227
#	71392
#	86185
#	105240
#	121877
#	141317
#	158917
#
# Disc length: 2309 seconds
#
# Revision: 16
# Processed by: cddbd v1.5.2PL0 Copyright (c) Steve Scherf et al.
# Submitted via: EZCDAudioConverter 4.0.5.1
#
DISCID=8009030a
DTITLE=Kenny Rogers - She Rides Wild Horses
DYEAR=1999
DGENRE=Country
TTITLE0=Slow Dance More
TTITLE1=Buy Me A Rose
TTITLE2=I Will Remember You
TTITLE3=Love Don't Live Here Anymore
TTITLE4=She Rides Wild Horses
TTITLE5=The Kind Of Fool Love Makes
TTITLE6=Loving Arms
TTITLE7=I Can't Make You Love Me
TTITLE8=Let It Be Me
TTITLE9=The Greatest
EXTD=
EXTT0=
EXTT1=
EXTT2=
EXTT3=
EXTT4=
EXTT5=
EXTT6=
EXTT7=
EXTT8=
EXTT9=
PLAYORDER=
